<svg width="18" height="14" viewBox="0 0 18 14" fill="none" xmlns="http://www.w3.org/2000/svg">
<path d="M1.6875 0C0.755859 0 0 0.783854 0 1.75C0 2.30052 0.249609 2.81823 0.675 3.15L8.325 9.1C8.72578 9.4099 9.27422 9.4099 9.675 9.1L17.325 3.15C17.7504 2.81823 18 2.30052 18 1.75C18 0.783854 17.2441 0 16.3125 0H1.6875ZM0 4.08333V11.6667C0 12.9536 1.00898 14 2.25 14H15.75C16.991 14 18 12.9536 18 11.6667V4.08333L10.35 10.0333C9.54844 10.6568 8.45156 10.6568 7.65 10.0333L0 4.08333Z" fill="#4E4C4C"/>
</svg>
